<svg
  t="1712118373793"
  class="icon"
  viewBox="0 0 1024 1024"
  version="1.1"
  xmlns="http://www.w3.org/2000/svg"
  p-id="1553"
  width="200"
  height="200"
>
  <path
    d="M518.4 102.4A403.2 403.2 0 1 0 921.6 505.6 403.584 403.584 0 0 0 518.4 102.4zM908.8 505.6a393.216 393.216 0 0 1-2.432 42.752c-18.56-26.24-38.4-54.912-49.792-71.936-15.104-22.656-35.584-34.048-52.352-29.056-14.848 4.608-23.424 21.12-23.424 45.44 0 12.8-2.816 21.76-7.808 24.448s-15.872-1.28-19.84-3.712c-24.32-30.336-81.536-97.536-103.808-89.6-4.224 1.536-9.344 5.888-9.344 17.792 0 33.28 20.096 47.488 34.816 57.984 10.496 7.168 16.384 12.288 16.384 18.688a93.184 93.184 0 0 1-12.8 33.408 207.488 207.488 0 0 0-25.6 94.592c0 43.776-25.6 120.576-66.56 146.048a51.2 51.2 0 0 1-52.224 1.792c-51.2-25.6-47.36-48.768-40.32-86.784A263.808 263.808 0 0 0 499.2 659.2c0-72.192-32.256-108.8-96-108.8-35.328 0-58.112-7.808-67.712-23.168s-6.144-38.4 9.472-70.016a105.088 105.088 0 0 1 108.8-60.416c18.176 1.792 109.696 9.856 129.92-8.448a14.08 14.08 0 0 0 5.12-10.752c0-32-58.496-57.6-108.8-57.6a215.552 215.552 0 0 0-75.904 18.688c-12.8 5.12-31.488 12.032-34.816 8.832a34.304 34.304 0 0 1-8.704-30.208c3.072-10.752 13.824-18.688 31.36-23.168 45.696-11.392 53.376-23.552 70.272-50.432q4.48-7.296 10.368-16.128c16.512-25.6 45.824-18.944 71.808-13.696a133.376 133.376 0 0 0 25.6 3.712c5.632 0 22.784 0 73.472-81.92A391.296 391.296 0 0 1 908.8 505.6z m-773.888-72.704c14.464 77.568 30.08 125.056 46.208 140.8 29.184 29.312 43.008 91.648 41.216 185.472a388.352 388.352 0 0 1-87.424-326.656zM518.4 896a389.248 389.248 0 0 1-283.648-122.624c3.584-106.368-10.88-174.592-44.672-208.256-15.744-15.872-32.768-74.24-47.872-163.712A390.912 390.912 0 0 1 518.4 115.2a387.072 387.072 0 0 1 112.128 16.512C596.864 185.344 576.768 204.8 569.6 204.8a127.232 127.232 0 0 1-22.656-3.456c-26.88-5.504-64-12.8-85.12 19.072-3.968 6.144-7.424 11.52-10.496 16.512-15.872 25.6-21.76 34.688-62.464 44.928-28.16 6.912-37.632 21.248-40.576 32.128a46.208 46.208 0 0 0 12.032 42.496c9.088 9.216 25.6 2.944 48.384-5.888A206.464 206.464 0 0 1 480 332.8c51.2 0 96 25.6 96 44.8l-0.896 1.28c-12.8 11.264-80.256 9.088-119.68 5.248a119.68 119.68 0 0 0-121.984 67.456c-17.664 35.456-20.608 63.104-8.832 82.304S363.136 563.2 403.2 563.2c56.704 0 83.2 30.464 83.2 96a240.64 240.64 0 0 1-5.376 45.952C473.6 742.4 468.096 775.68 528.384 806.4a68.096 68.096 0 0 0 30.592 7.68 64.896 64.896 0 0 0 34.048-10.112C640 774.4 665.6 692.224 665.6 646.4a193.92 193.92 0 0 1 25.6-89.6 97.664 97.664 0 0 0 12.8-38.4c0-13.952-11.136-21.76-21.76-29.312-14.464-10.24-29.44-20.864-29.44-47.488a11.008 11.008 0 0 1 0.896-5.632c9.088-2.688 51.2 37.632 89.6 86.4l1.408 1.408a36.864 36.864 0 0 0 33.792 4.736c10.24-5.12 15.104-16.512 15.104-35.712s5.248-30.336 14.336-33.152 26.24 6.272 38.4 23.936S883.2 537.6 903.936 566.912A390.912 390.912 0 0 1 518.4 896z"
    fill="#0D0C00"
    p-id="1554"
  />
</svg>