<?xml version="1.0" standalone="no"?><!DOCTYPE svg PUBLIC "-//W3C//DTD SVG 1.1//EN" "http://www.w3.org/Graphics/SVG/1.1/DTD/svg11.dtd"><svg t="1712047265056" class="icon" viewBox="0 0 1024 1024" version="1.1" xmlns="http://www.w3.org/2000/svg" p-id="1075" xmlns:xlink="http://www.w3.org/1999/xlink" width="200" height="200"><path d="M786.112 291.04a32.128 32.128 0 0 0-29.632-3.456L512 381.728 267.52 287.584A32 32 0 0 0 224 317.44v192a32 32 0 0 0 20.48 29.856l256 98.56c7.424 2.88 15.616 2.88 23.04 0l256-98.56a32 32 0 0 0 20.48-29.856v-192a32.032 32.032 0 0 0-13.888-26.4z" fill="#4367E0" p-id="1076"></path><path d="M800 317.44v90.56l-253.44 97.6a96.512 96.512 0 0 1-69.12 0L224 408V317.44a31.456 31.456 0 0 1 13.76-26.24 31.904 31.904 0 0 1 29.76-3.52L512 381.76l244.48-94.08a31.904 31.904 0 0 1 39.904 14.912 31.456 31.456 0 0 1 3.616 14.848z" fill="#2744C1" p-id="1077"></path><path d="M939.488 226.112l-416-160a32 32 0 0 0-22.976 0l-416 160a32 32 0 0 0 0 59.776l416 160c7.392 2.816 15.584 2.816 22.976 0l416-160a32 32 0 0 0 0-59.776z" fill="#548AFF" p-id="1078"></path><path d="M96 768a32 32 0 0 1-32-32V256a32 32 0 0 1 32-32h416a32 32 0 0 1 0 64H128v448a32 32 0 0 1-32 32z" fill="#4367E0" p-id="1079"></path><path d="M184.576 792.32l-64-76.8a33.088 33.088 0 0 0-49.152 0l-64 76.8a32 32 0 0 0-3.392 36.032l64 115.2a32 32 0 0 0 55.936 0l64-115.2a32 32 0 0 0-3.392-36.032z" fill="#548AFF" p-id="1080"></path></svg>